<svg xmlns="http://www.w3.org/2000/svg" viewBox="0 0 512 512">
  <title>Coach Synergy</title>
  <path transform="translate(0,512) scale(0.1,-0.1)" fill="#000000" stroke="none" d="M760 2530 c0 -253 1 -260 20 -260 19 0 20 7 20 260 0 253 -1 260 -20
260 -19 0 -20 -7 -20 -260z"/>
  <path transform="translate(0,512) scale(0.1,-0.1)" fill="#000000" stroke="none" d="M1460 2530 c0 -253 1 -260 20 -260 19 0 20 7 20 260 0 253 -1 260
-20 260 -19 0 -20 -7 -20 -260z"/>
  <path transform="translate(0,512) scale(0.1,-0.1)" fill="#000000" stroke="none" d="M2210 2530 c0 -224 2 -260 15 -260 13 0 15 36 15 260 0 224 -2 260
-15 260 -13 0 -15 -36 -15 -260z"/>
  <path transform="translate(0,512) scale(0.1,-0.1)" fill="#000000" stroke="none" d="M2900 2530 c0 -253 1 -260 20 -260 19 0 20 7 20 260 0 253 -1 260
-20 260 -19 0 -20 -7 -20 -260z"/>
  <path transform="translate(0,512) scale(0.1,-0.1)" fill="#000000" stroke="none" d="M3600 2530 c0 -224 2 -260 15 -260 13 0 15 36 15 260 0 224 -2 260
-15 260 -13 0 -15 -36 -15 -260z"/>
  <path transform="translate(0,512) scale(0.1,-0.1)" fill="#000000" stroke="none" d="M4340 2530 c0 -253 1 -260 20 -260 19 0 20 7 20 260 0 253 -1 260
-20 260 -19 0 -20 -7 -20 -260z"/>
  <path transform="translate(0,512) scale(0.1,-0.1)" fill="#000000" stroke="none" d="M413 2733 c-12 -2 -34 -18 -49 -36 -21 -24 -25 -38 -20 -65 7 -46 16
-55 94 -92 72 -34 82 -43 82 -76 0 -49 -86 -72 -149 -39 -27 13 -29 13 -34 -5
-15 -59 167 -65 208 -7 22 31 19 93 -5 117 -11 11 -46 32 -78 46 -83 36 -100
66 -62 104 22 22 88 27 121 10 16 -9 19 -7 19 9 0 11 -4 22 -9 25 -14 9 -93
15 -118 9z"/>
  <path transform="translate(0,512) scale(0.1,-0.1)" fill="#000000" stroke="none" d="M3949 2730 c-78 -23 -119 -86 -119 -182 0 -51 5 -72 23 -98 40 -60
71 -75 145 -74 37 1 79 6 95 12 26 11 27 14 27 92 l0 80 -65 0 c-51 0 -65 -3
-65 -15 0 -11 12 -15 45 -15 l45 0 0 -54 c0 -61 -6 -66 -73 -66 -54 0 -86 17
-114 59 -44 64 -24 172 39 211 26 17 45 20 88 17 30 -2 63 -8 73 -12 13 -5 17
-2 17 13 0 34 -94 53 -161 32z"/>
  <path transform="translate(0,512) scale(0.1,-0.1)" fill="#000000" stroke="none" d="M1044 2623 c52 -99 56 -111 56 -175 0 -66 1 -68 25 -68 24 0 25 2 25
67 0 61 4 74 55 170 30 57 55 106 55 109 0 2 -9 4 -20 4 -15 0 -31 -22 -66
-92 l-47 -93 -46 93 c-38 77 -49 92 -69 92 -23 0 -21 -4 32 -107z"/>
  <path transform="translate(0,512) scale(0.1,-0.1)" fill="#000000" stroke="none" d="M1710 2555 c0 -168 1 -175 20 -175 18 0 20 8 22 141 l3 142 92 -142
c69 -106 97 -141 113 -141 19 0 20 5 20 175 0 171 0 175 -21 175 -21 0 -21 -3
-17 -139 2 -77 3 -139 2 -138 -1 1 -43 64 -93 140 -77 116 -95 137 -116 137
l-25 0 0 -175z"/>
  <path transform="translate(0,512) scale(0.1,-0.1)" fill="#000000" stroke="none" d="M2470 2555 l0 -175 105 0 c85 0 105 3 105 15 0 11 -18 15 -82 17
l-83 3 -3 63 -3 62 76 0 c68 0 75 2 75 20 0 18 -7 20 -75 20 l-75 0 0 60 0 60
80 0 c64 0 80 3 80 15 0 12 -18 15 -100 15 l-100 0 0 -175z"/>
  <path transform="translate(0,512) scale(0.1,-0.1)" fill="#000000" stroke="none" d="M3150 2555 c0 -168 1 -175 20 -175 18 0 20 7 20 70 l0 70 29 0 c26 0
37 -10 78 -70 36 -52 54 -70 71 -70 26 0 27 -3 -31 84 -30 45 -37 61 -26 65
34 11 69 60 69 96 0 77 -41 105 -155 105 l-75 0 0 -175z m173 114 c23 -28 22
-64 -3 -89 -15 -15 -33 -20 -75 -20 l-55 0 0 71 0 72 58 -6 c42 -4 62 -12 75
-28z"/>
  <path transform="translate(0,512) scale(0.1,-0.1)" fill="#000000" stroke="none" d="M4560 2727 c0 -2 26 -50 57 -108 49 -91 57 -113 61 -171 4 -58 7 -68
23 -68 17 0 19 8 19 67 0 61 4 74 55 170 30 57 55 106 55 109 0 2 -9 4 -20 4
-15 0 -31 -22 -66 -92 l-47 -93 -46 93 c-37 76 -50 92 -68 92 -13 0 -23 -1
-23 -3z"/>
</svg>
